<svg xmlns="http://www.w3.org/2000/svg" aria-hidden="true" style="position:absolute;width:0;height:0;overflow:hidden">
  <defs>
    <symbol id="icon-arrow_back" viewBox="0 0 32 32">
      <path stroke-width="1.333" d="M16.01 6.249c.114 0 .212.035.322.145a.45.45 0 0 1 .145.332.425.425 0 0 1-.145.324L7.85 15.532h17.88a.451.451 0 0 1 .477.469c0 .16-.046.255-.129.337a.457.457 0 0 1-.348.132H7.85l8.474 8.473c.11.11.147.212.148.335v.001a.4.4 0 0 1-.074.246l-.069.082a.415.415 0 0 1-.323.142.457.457 0 0 1-.341-.151l-9.264-9.264a.542.542 0 0 1-.121-.167v-.001c-.02-.048-.031-.102-.031-.165s.012-.116.031-.163v-.001a.554.554 0 0 1 .121-.167l9.267-9.267a.466.466 0 0 1 .342-.152z"/>
    </symbol>
    <symbol id="icon-arrow_forward" viewBox="0 0 32 32">
      <path stroke-width="1.333" d="M15.993 6.253a.432.432 0 0 1 .259.081l.082.07 9.264 9.264a.542.542 0 0 1 .121.167v.001c.02.048.031.102.031.165s-.012.116-.031.163v.001a.567.567 0 0 1-.121.167l-9.272 9.264c-.122.12-.227.155-.337.155-.108 0-.204-.033-.315-.147l-.007-.007-.069-.081c-.056-.079-.075-.157-.075-.243s.02-.163.075-.242l.069-.081 8.482-8.482H6.269c-.163 0-.259-.047-.34-.128h-.001a.44.44 0 0 1-.128-.341c0-.162.046-.26.128-.341h.001c.081-.081.177-.127.34-.128h17.88l-8.474-8.474a.467.467 0 0 1-.141-.246l-.008-.09a.423.423 0 0 1 .141-.326l.001-.001a.42.42 0 0 1 .324-.142z"/>
    </symbol>
    <symbol id="icon-bookmark" viewBox="0 0 32 32">
      <path d="m16 24.223-6.358 2.72c-.757.326-1.475.265-2.155-.184s-1.02-1.083-1.02-1.905V5.904c0-.616.225-1.149.676-1.601s.982-.678 1.595-.678h14.523c.616 0 1.149.226 1.601.678s.678.985.678 1.601v18.95c0 .821-.341 1.456-1.024 1.905s-1.402.51-2.159.184l-6.358-2.72zm0-2.429 7.262 3.061V5.905H8.739v18.95l7.262-3.061zm0-15.889z"/>
    </symbol>
    <symbol id="icon-chevron_left" viewBox="0 0 32 32">
      <path stroke-width="1.333" d="M18.716 8.865c.134 0 .237.041.341.145s.145.207.145.341-.04.237-.145.341l-6.276 6.276 6.276 6.275c.104.104.133.193.129.301a.492.492 0 0 1-.161.348c-.104.104-.207.146-.341.146s-.237-.042-.341-.146l-6.592-6.591a.743.743 0 0 1-.082-.096l-.039-.07a.415.415 0 0 1-.031-.165c0-.032.002-.063.008-.09l.023-.077a.548.548 0 0 1 .121-.167l6.626-6.625a.447.447 0 0 1 .34-.145z"/>
    </symbol>
    <symbol id="icon-chevron_right" viewBox="0 0 32 32">
      <path stroke-width="1.333" d="M12.516 8.897c.134 0 .237.041.341.145l6.592 6.592a.547.547 0 0 1 .121.165v.001c.02.047.031.1.031.165s-.012.118-.031.165v.001a.547.547 0 0 1-.121.165l-6.625 6.625c-.104.104-.193.133-.301.129a.492.492 0 0 1-.348-.161c-.104-.104-.146-.207-.146-.341s.042-.237.146-.341l6.242-6.242-6.276-6.276c-.104-.104-.133-.192-.129-.299a.491.491 0 0 1 .163-.349.447.447 0 0 1 .34-.145z"/>
    </symbol>
    <symbol id="icon-close" viewBox="0 0 32 32">
      <path stroke-width="1.333" d="M23.466 7.9c.219 0 .355.065.462.172s.172.242.172.461c0 .219-.065.355-.172.462L16.923 16l7.005 7.004c.107.107.172.243.172.462s-.065.355-.172.462-.243.172-.462.172c-.219 0-.355-.065-.462-.172L16 16.923l-7.005 7.005c-.107.107-.243.172-.462.172s-.354-.065-.461-.172c-.107-.107-.172-.243-.172-.462s.065-.355.172-.462L15.076 16 8.072 8.995c-.107-.107-.172-.243-.172-.462s.065-.354.172-.461.242-.172.461-.172c.219 0 .355.065.462.172L16 15.076l7.004-7.004c.107-.107.243-.172.462-.172z"/>
    </symbol>
    <symbol id="icon-communication" viewBox="0 0 32 32">
      <path d="M1.15 21.271v-.569c0-1.243.618-2.059 1.853-2.45s2.329-.586 3.283-.586c.954 0 2.048.195 3.283.584s1.853 1.207 1.853 2.451v.569H1.151zm5.134-5.39c-.725 0-1.345-.259-1.861-.776s-.773-1.14-.773-1.866.258-1.348.775-1.863c.516-.515 1.137-.773 1.862-.773s1.345.259 1.861.776.773 1.139.773 1.864-.258 1.346-.775 1.864a2.537 2.537 0 0 1-1.862.776zm6.96 1.999c-.255 0-.466-.08-.632-.24s-.249-.365-.249-.616c0-.125.083-.342.249-.65.172-.244.309-.5.409-.767s.15-.545.15-.834c0-.289-.05-.575-.15-.858s-.237-.532-.411-.749c-.072-.097-.131-.198-.177-.303s-.069-.216-.069-.333c0-.254.083-.464.25-.629s.377-.248.631-.248c.112 0 .228.018.346.054s.211.098.278.187c.388.405.673.856.853 1.353s.271 1.006.271 1.526c0 .516-.097 1.035-.291 1.556s-.48.968-.856 1.34c-.089.089-.182.146-.278.171s-.204.038-.322.038zm2.539 2.535c-.26 0-.471-.084-.633-.251s-.243-.379-.243-.635c0-.118.022-.228.065-.33s.101-.201.173-.296c.546-.639.951-1.307 1.215-2.005s.395-1.405.395-2.125-.132-1.434-.395-2.144a6.393 6.393 0 0 0-1.216-1.998c-.071-.095-.129-.192-.172-.291s-.065-.211-.065-.335c0-.258.083-.469.25-.633s.377-.246.632-.246c.13 0 .252.03.363.091s.214.141.308.242c.695.8 1.215 1.649 1.558 2.547s.516 1.819.516 2.764c0 .945-.172 1.866-.516 2.764s-.863 1.747-1.558 2.547c-.087.111-.187.194-.299.25s-.238.083-.378.083zm4.796.856v-.569c0-1.244.617-2.061 1.853-2.451s2.329-.584 3.283-.584c.954 0 2.048.195 3.283.586s1.853 1.207 1.853 2.45v.569H20.58zm5.134-5.39c-.725 0-1.345-.259-1.861-.776s-.773-1.14-.773-1.866.258-1.348.775-1.863c.516-.515 1.137-.773 1.862-.773s1.345.259 1.861.776.773 1.139.773 1.864-.258 1.346-.775 1.864a2.537 2.537 0 0 1-1.862.776z"/>
    </symbol>
    <symbol id="icon-edit" viewBox="0 0 32 32">
      <path d="M6.064 25.928h1.475l15.327-15.294-1.459-1.467L6.064 24.469v1.459zm-1.128 2.271a1.102 1.102 0 0 1-1.135-1.135v-2.561c0-.304.062-.601.187-.891s.289-.537.493-.742L22.952 4.424c.183-.188.404-.335.661-.441s.525-.158.803-.158c.255 0 .51.053.765.158s.491.25.707.433l1.73 1.706c.205.216.355.453.449.711s.141.517.141.777-.053.524-.158.79-.25.494-.433.682L9.146 27.52c-.21.204-.458.369-.746.493s-.583.187-.887.187H4.936zM22.14 9.893l-.733-.725 1.459 1.467-.725-.741z"/>
    </symbol>
    <symbol id="icon-Facebook" viewBox="0 0 32 32">
      <path d="M29.333 16.405C29.333 8.996 23.364 2.99 16 2.99S2.667 8.996 2.667 16.405c0 6.696 4.876 12.245 11.25 13.252v-9.374h-3.385v-3.878h3.385V13.45c0-3.362 1.991-5.219 5.036-5.219 1.459 0 2.985.262 2.985.262v3.301h-1.681c-1.656 0-2.173 1.034-2.173 2.095v2.516h3.698l-.591 3.878h-3.107v9.374c6.374-1.006 11.25-6.556 11.25-13.252z"/>
    </symbol>
    <symbol id="icon-Instagram" viewBox="0 0 32 32">
      <path d="M16.007 6.488c3.206 0 3.585.014 4.846.071 1.172.052 1.804.248 2.227.412.558.216.961.478 1.378.895.422.422.679.82.9 1.378.164.422.361 1.059.412 2.226.056 1.266.071 1.645.071 4.847s-.014 3.585-.071 4.847c-.052 1.172-.248 1.804-.412 2.226a3.714 3.714 0 0 1-.895 1.378c-.422.422-.82.679-1.377.9-.422.164-1.06.361-2.227.412-1.266.056-1.645.071-4.847.071s-3.585-.014-4.847-.071c-1.172-.052-1.804-.248-2.226-.412a3.714 3.714 0 0 1-1.378-.895 3.767 3.767 0 0 1-.9-1.378c-.164-.422-.361-1.06-.412-2.226-.056-1.266-.071-1.645-.071-4.847s.014-3.585.071-4.847c.052-1.172.248-1.804.412-2.226.216-.558.478-.961.895-1.378.422-.422.82-.679 1.378-.9.422-.164 1.059-.361 2.226-.412 1.261-.056 1.641-.071 4.847-.071h.001zm0-2.16c-3.258 0-3.665.014-4.945.071-1.275.056-2.151.262-2.91.558a5.847 5.847 0 0 0-2.127 1.387 5.883 5.883 0 0 0-1.387 2.123c-.295.764-.502 1.636-.558 2.91-.056 1.285-.071 1.692-.071 4.949s.014 3.665.071 4.945c.056 1.275.262 2.151.558 2.91a5.86 5.86 0 0 0 1.387 2.127 5.876 5.876 0 0 0 2.123 1.383c.764.295 1.636.502 2.91.558 1.279.056 1.687.07 4.945.07s3.665-.014 4.945-.07c1.275-.056 2.151-.263 2.91-.558.787-.304 1.458-.717 2.123-1.383s1.078-1.336 1.383-2.123c.295-.764.502-1.635.558-2.91.056-1.279.07-1.687.07-4.945s-.014-3.665-.07-4.945c-.056-1.275-.263-2.151-.558-2.91a5.622 5.622 0 0 0-1.373-2.133 5.876 5.876 0 0 0-2.123-1.383c-.764-.295-1.636-.502-2.91-.558-1.284-.061-1.692-.075-4.949-.075l-.001.001z"/>
      <path d="M16.007 10.163a6.164 6.164 0 1 0 6.163 6.163 6.165 6.165 0 0 0-6.163-6.163zm0 10.161a3.998 3.998 0 1 1 0-7.996 3.998 3.998 0 0 1 0 7.996zM23.851 9.919a1.439 1.439 0 1 1-2.877 0 1.439 1.439 0 0 1 2.877 0z"/>
    </symbol>
    <symbol id="icon-keyboard_arrow_down" viewBox="0 0 32 32">
      <path stroke-width="1.333" d="M9.449 12.031c.134 0 .237.041.341.145l6.208 6.244 6.243-6.244c.104-.103.192-.133.299-.129a.491.491 0 0 1 .349.163c.104.104.145.207.145.341s-.041.236-.145.34L16.33 19.45a.527.527 0 0 1-.167.122.415.415 0 0 1-.165.031.499.499 0 0 1-.09-.009l-.077-.022-.07-.04a.681.681 0 0 1-.095-.082l-6.592-6.591a.392.392 0 0 1-.129-.318.507.507 0 0 1 .163-.365.447.447 0 0 1 .34-.145z"/>
    </symbol>
    <symbol id="icon-keyboard_arrow_up" viewBox="0 0 32 32">
      <path stroke-width="1.333" d="M16 11.605c.125 0 .227.038.333.145l6.591 6.592c.109.109.145.208.145.324s-.035.215-.145.324c-.104.104-.207.145-.341.145s-.236-.041-.34-.145l-.001-.001-6.243-6.207-6.241 6.241c-.104.104-.192.133-.299.129a.493.493 0 0 1-.349-.161c-.104-.104-.145-.207-.145-.341s.04-.237.145-.341l6.559-6.559a.438.438 0 0 1 .332-.145z"/>
    </symbol>
    <symbol id="icon-logout" viewBox="0 0 32 32">
      <path d="M6.072 28.199c-.613 0-1.145-.225-1.595-.676s-.676-.982-.676-1.595V6.071c0-.616.225-1.149.676-1.601s.982-.678 1.595-.678h8.807c.321 0 .59.111.808.334s.327.495.327.816c0 .322-.109.59-.327.806s-.487.323-.808.323H6.072v19.857h8.807c.321 0 .59.11.808.329s.327.49.327.812c0 .322-.109.591-.327.806s-.487.323-.808.323H6.072zm17.784-11.063H13.088c-.32 0-.59-.11-.808-.329s-.327-.49-.327-.812c0-.322.109-.591.327-.806s.488-.323.808-.323h10.701l-2.564-2.564c-.227-.228-.334-.495-.323-.8s.13-.571.357-.795c.226-.229.496-.342.81-.34s.585.117.815.344l4.529 4.529c.221.228.332.494.332.797s-.111.568-.332.794l-4.496 4.496c-.222.226-.486.335-.792.327s-.577-.126-.812-.352c-.218-.227-.328-.497-.331-.811s.112-.586.344-.813l2.531-2.539z"/>
    </symbol>
    <symbol id="icon-menu" viewBox="0 0 32 32">
      <path d="M4.936 24.295c-.321 0-.59-.11-.808-.329s-.327-.493-.327-.82c0-.322.109-.591.327-.807s.488-.323.808-.323h22.127c.321 0 .591.11.812.329s.331.49.331.812a1.121 1.121 0 0 1-1.143 1.137H4.936zm0-7.159c-.321 0-.59-.11-.808-.329s-.327-.49-.327-.812c0-.322.109-.591.327-.806s.488-.323.808-.323h22.127c.321 0 .591.11.812.329s.331.49.331.812c0 .322-.11.591-.331.806s-.492.323-.812.323H4.936zm0-7.152c-.321 0-.59-.11-.808-.329s-.327-.493-.327-.82c0-.322.109-.591.327-.806s.488-.323.808-.323h22.127c.321 0 .591.11.812.329s.331.49.331.812a1.117 1.117 0 0 1-1.143 1.138H4.936z"/>
    </symbol>
    <symbol id="icon-plant" viewBox="0 0 32 32">
      <path fill="#f6cc90" d="M3.119 30.727c0-.02 3.718-3.176 12.486-3.176 8.516 0 12.486 3.156 12.486 3.176H3.119z" style="fill:var(--color1, #f6cc90)"/>
      <path fill="#f0c17f" d="M15.604 27.551c-.544 0-1.068.012-1.574.035 7.461.345 10.953 3.122 10.953 3.141h3.106c0-.02-3.969-3.176-12.486-3.176z" style="fill:var(--color2, #f0c17f)"/>
      <path fill="#c5e866" d="M21.274 5.575c-1.016 2.947-3.753 3.454-3.753 3.454s-1.814-2.172-.825-5.042c1.042-3.023 3.78-3.53 3.78-3.53s1.827 2.134.798 5.119z" style="fill:var(--color3, #c5e866)"/>
      <path fill="#b2d94b" d="M20.477.457s-.723.134-1.568.675a5.454 5.454 0 0 1 .356 4.443 5.246 5.246 0 0 1-2.178 2.782c.233.429.435.671.435.671s2.738-.507 3.753-3.454c1.029-2.985-.798-5.119-.798-5.119z" style="fill:var(--color4, #b2d94b)"/>
      <path fill="#9cc042" d="M18.545 19.429c-1.669.237-2.898-.104-2.898-.104s-1.063-4.264 2.258-7.595c3.498-3.509 7.659-2.354 7.659-2.354s.913 3.48-1.506 6.714z" style="fill:var(--color5, #9cc042)"/>
      <path fill="#85aa18" d="M25.565 9.376s-1.116-.309-2.678-.121c.422.053.668.121.668.121s.913 3.48-1.506 6.714l-5.514 3.338a5.973 5.973 0 0 1-.181.023c.52.064 1.291.104 2.191-.023l5.514-3.338c2.419-3.234 1.506-6.714 1.506-6.714z" style="fill:var(--color6, #85aa18)"/>
      <path fill="#c5e866" d="M11.668 17.193c2.962 2.335 2.457 5.681 2.457 5.681s-3.198 1.224-6.084-1.05c-3.039-2.395-2.534-5.742-2.534-5.742s3.16-1.254 6.161 1.111z" style="fill:var(--color3, #c5e866)"/>
      <path fill="#9cc042" d="M8.271 12.378c2.982 3.8 7.251 3.146 7.251 3.146s1.557-4.108-1.348-7.809C11.114 3.816 6.845 4.47 6.845 4.47S5.249 8.529 8.27 12.378z" style="fill:var(--color5, #9cc042)"/>
      <path fill="#c5e866" d="M23.288 21.152c-2.559 1.769-5.064.55-5.064.55s-.178-2.828 2.315-4.551c2.626-1.815 5.13-.596 5.13-.596s.211 2.805-2.381 4.597z" style="fill:var(--color3, #c5e866)"/>
      <path fill="#b2d94b" d="M25.669 16.554s-1.305-.635-3.02-.306c.625.118 1.01.306 1.01.306s.211 2.805-2.381 4.597a5.332 5.332 0 0 1-2.021.864 5.24 5.24 0 0 0 4.03-.864c2.593-1.792 2.381-4.597 2.381-4.597z" style="fill:var(--color4, #b2d94b)"/>
      <path fill="#060606" d="M28.166 30.212c-.903-.637-1.933-1.111-2.961-1.506-1.855-.714-4.941-1.56-9.215-1.609.069-.591.234-1.44.619-2.386.383-.939.9-1.786 1.549-2.539.305.125 1.089.4 2.114.4.949 0 2.105-.236 3.275-1.045 2.776-1.919 2.587-4.882 2.577-5.007a.456.456 0 0 0-.256-.376 4.802 4.802 0 0 0-1.061-.334 8.74 8.74 0 0 0 1.113-2.587c.143-.572-.743-.793-.886-.222a7.87 7.87 0 0 1-1.251 2.693c-.989-.023-2.231.201-3.504 1.081a5.69 5.69 0 0 0-1.91 2.216 7.936 7.936 0 0 1-1.957.007c.928-1.252 3.347-4.286 6.071-5.871.509-.296.05-1.086-.459-.79-2.65 1.542-4.957 4.287-6.069 5.744-.064-1.422.182-3.93 2.276-6.03 1.364-1.369 2.988-2.162 4.826-2.357a7.693 7.693 0 0 1 2.122.064c.041.238.09.623.099 1.107.01.584.924.577.914-.016-.017-.948-.176-1.565-.182-1.59a.456.456 0 0 0-.32-.324c-.046-.013-1.141-.31-2.686-.153-1.422.144-3.517.717-5.419 2.625a9.035 9.035 0 0 0-.447.483c.256-.79.537-1.644.823-2.503a5.722 5.722 0 0 0 3.748-3.663c1.102-3.196-.802-5.469-.883-5.565a.455.455 0 0 0-.43-.152c-.122.023-3.012.593-4.128 3.831-.927 2.688.394 4.789.798 5.343-.266.8-.526 1.593-.767 2.333a8.611 8.611 0 0 0-1.762-4.081c-1.664-2.12-3.676-2.937-5.071-3.248-1.516-.339-2.638-.174-2.686-.166a.458.458 0 0 0-.356.284c-.013.033-.316.813-.419 2.01-.051.587.86.665.91.079a7.68 7.68 0 0 1 .274-1.494 7.653 7.653 0 0 1 2.114.188c1.802.412 3.321 1.392 4.515 2.912 1.131 1.441 1.691 3.112 1.666 4.968a8.555 8.555 0 0 1-.161 1.537c-1.807-3.365-4.366-5.951-4.478-6.064-.416-.417-1.063.228-.647.645.027.027 2.665 2.694 4.412 6.024a7.908 7.908 0 0 1-1.532-.186c-1.789-.396-3.284-1.347-4.445-2.826-.808-1.03-1.344-2.173-1.591-3.398-.117-.578-1.012-.397-.896.181a8.961 8.961 0 0 0 1.768 3.781c1.625 2.07 3.619 2.862 5.007 3.163.691.15 1.404.221 2.111.198v7.692a10.006 10.006 0 0 0-.443-.845 6.852 6.852 0 0 0-2.635-6.033c-3.171-2.499-6.473-1.232-6.612-1.176a.457.457 0 0 0-.283.356c-.022.147-.508 3.638 2.703 6.169a6.79 6.79 0 0 0 4.271 1.482c.792 0 1.442-.129 1.839-.234a8.796 8.796 0 0 1 1.125 3.669c-2.364.04-4.57.311-6.563.809-.572.143-.35 1.029.222.886 1.932-.483 4.076-.745 6.379-.783v1.05c0 .589.914.589.914 0V28.01c5.388.054 8.831 1.373 10.543 2.26H4.681a14.942 14.942 0 0 1 1.713-.77c.551-.21.226-1.064-.325-.854a14.822 14.822 0 0 0-2.427 1.164c-.973.593-.973.736-.973.917 0 .252.204.457.457.457h24.972c.694 0 .421-.729.076-.972zm-7.368-12.686c1.927-1.332 3.758-.893 4.416-.663a4.974 4.974 0 0 1-2.187 3.912 4.793 4.793 0 0 1-4.176.674c.9-.843 1.996-1.542 3.281-2.093.541-.232.182-1.072-.36-.84a12.422 12.422 0 0 0-2.905 1.722 4.825 4.825 0 0 1 1.93-2.713zm-3.446 2.444c.205 0 .423-.007.651-.024-.15.522-.208.981-.229 1.303a10.114 10.114 0 0 0-1.832 2.705v-4.1c.32.055.809.116 1.41.116zm-.224-15.834c.765-2.219 2.498-2.954 3.165-3.16a4.984 4.984 0 0 1 .549 4.451 4.805 4.805 0 0 1-2.507 2.837c.593-1.753 1.179-3.414 1.604-4.457.222-.546-.624-.891-.846-.345-.444 1.088-1.048 2.802-1.655 4.596-.415-.795-.898-2.219-.311-3.921zM8.323 21.465c-1.165-.918-1.917-2.087-2.235-3.473a6.026 6.026 0 0 1-.151-1.569 6.137 6.137 0 0 1 5.448 1.128c1.133.893 1.862 2.043 2.168 3.418.044.2.076.39.098.568-.304-.367-.614-.69-.912-.969-1.576-1.479-3.14-2.098-3.206-2.124-.549-.214-.881.637-.332.851.014.006 1.464.579 2.912 1.938.463.434.87.894 1.224 1.379-1.012.206-3.093.365-5.014-1.149z" style="fill:var(--color7, #060606)"/>
    </symbol>
    <symbol id="icon-travel_luggage_and_bags" viewBox="0 0 32 32">
      <path d="M6.467 25.762v-15.69c0-.632.221-1.17.663-1.614s.978-.665 1.608-.665h3.341V3.587c0-.325.119-.608.358-.851s.521-.364.846-.364h5.435c.325 0 .607.121.846.364s.358.526.358.851v4.206h3.341c.632 0 1.17.222 1.614.665s.665.981.665 1.614v15.69c0 .63-.222 1.166-.665 1.608s-.981.663-1.614.663v.548c0 .297-.099.546-.298.747s-.448.301-.75.301c-.305 0-.566-.093-.784-.279s-.306-.442-.263-.769v-.548H10.836v.548c0 .297-.099.546-.298.747s-.449.301-.75.301c-.305 0-.566-.093-.785-.279s-.306-.442-.263-.769v-.548c-.63 0-1.166-.221-1.608-.663s-.663-.978-.663-1.608zm7.7-17.969h3.667V4.46h-3.667v3.333zM16 15.778c1.276 0 2.536-.142 3.779-.425s2.404-.763 3.482-1.436v-3.844H8.738v3.846c1.078.673 2.239 1.151 3.483 1.435s2.503.425 3.779.425zm-1.048 2.651v-.43c-1.112-.067-2.191-.246-3.236-.538s-2.038-.722-2.978-1.289v9.59h14.523v-9.598c-.939.567-1.932.997-2.978 1.289s-2.124.474-3.236.546v.43c0 .297-.1.546-.299.747s-.451.301-.754.301-.552-.099-.748-.298-.294-.449-.294-.75z"/>
    </symbol>
    <symbol id="icon-wand_stars" viewBox="0 0 32 32">
      <path d="m21.848 16.962-3.113 5.02c-.178.294-.429.408-.754.341s-.532-.258-.621-.575l-1.092-4.41-10.08 10.031c-.227.232-.492.348-.796.348s-.569-.116-.796-.348c-.226-.227-.34-.492-.34-.796s.113-.569.34-.796l10.047-10.039-4.425-1.092c-.316-.089-.507-.296-.571-.62s.048-.579.337-.762l5.02-3.146-.408-5.869c-.022-.339.118-.586.421-.741s.579-.122.829.1l4.504 3.788 5.461-2.189c.311-.111.58-.053.808.175s.286.497.175.808l-2.222 5.461 3.788 4.512c.222.25.261.526.117.829s-.386.443-.725.421l-5.902-.449zM4.215 7.999c-.122-.116-.183-.253-.183-.411s.061-.297.183-.418l1.629-1.629c.116-.116.253-.175.41-.175s.297.058.419.175l1.588 1.596c.122.122.182.26.182.414s-.061.293-.182.415L6.632 9.595c-.122.122-.26.182-.415.182s-.293-.061-.414-.182L4.215 7.999zm14.434 10.05 2.052-3.304 3.896.292-2.536-2.987 1.468-3.604-3.604 1.46L16.93 7.37l.3 3.896-3.312 2.077 3.796.943.935 3.763zm5.386 9.736-1.629-1.621c-.122-.122-.177-.26-.166-.414s.077-.293.199-.415l1.596-1.588c.116-.122.253-.183.411-.183s.297.061.418.183l1.629 1.621c.116.122.169.26.158.415s-.075.293-.191.414l-1.596 1.588c-.122.122-.26.183-.414.183s-.293-.061-.415-.183z"/>
    </symbol>
    <symbol id="icon-X" viewBox="0 0 32 32">
      <path d="M22.901 5.657h3.68l-8.04 9.037L28 26.991h-7.406l-5.801-7.458-6.637 7.458H4.474l8.6-9.666L4 5.657h7.594l5.243 6.817 6.064-6.817zM21.61 24.824h2.039L10.486 7.709H8.298L21.61 24.824z"/>
    </symbol>
    <symbol id="icon-Youtube" viewBox="0 0 32 32">
      <path d="M28.791 9.604a3.345 3.345 0 0 0-2.35-2.354C24.353 6.677 16 6.667 16 6.667s-8.352-.009-10.441.539a3.416 3.416 0 0 0-2.354 2.371c-.551 2.088-.556 6.419-.556 6.419s-.005 4.352.541 6.419a3.341 3.341 0 0 0 2.351 2.353c2.109.573 10.44.583 10.44.583s8.353.009 10.441-.537a3.356 3.356 0 0 0 2.356-2.35c.552-2.087.556-6.416.556-6.416s.027-4.353-.543-6.441zM13.328 20.007l.007-8 6.943 4.007-6.949 3.993z"/>
    </symbol>
  </defs>
</svg>
